<?xml version="1.0" standalone="no"?>
<!DOCTYPE svg PUBLIC "-//W3C//DTD SVG 20010904//EN"
 "http://www.w3.org/TR/2001/REC-SVG-20010904/DTD/svg10.dtd">
<svg version="1.0" xmlns="http://www.w3.org/2000/svg"
 width="348.000000pt" height="282.000000pt" viewBox="0 0 348.000000 282.000000"
 preserveAspectRatio="xMidYMid meet">

<g transform="translate(0.000000,282.000000) scale(0.100000,-0.100000)"
fill="#000000" stroke="none">
<path d="M2901 2550 c-64 -70 -77 -80 -107 -80 l-34 0 0 -80 0 -80 34 0 c31 0
43 -10 107 -80 58 -64 79 -80 101 -80 l28 0 0 240 0 240 -29 0 c-23 0 -42 -16
-100 -80z m79 -162 l-1 -163 -63 68 c-35 37 -71 67 -79 67 -9 0 -19 5 -22 10
-10 16 5 50 22 50 9 0 42 29 75 65 33 36 62 65 64 65 2 0 4 -73 4 -162z"/>
<path d="M3176 2561 c-17 -19 -17 -21 3 -49 11 -16 26 -50 33 -76 14 -54 1
-119 -34 -168 l-21 -30 20 -20 c20 -20 20 -20 42 10 67 95 66 240 -3 325 -22
27 -22 28 -40 8z"/>
<path d="M3098 2484 c-14 -14 -14 -19 -2 -43 18 -33 18 -69 0 -103 -13 -24
-12 -28 5 -44 18 -17 20 -16 34 2 33 43 32 152 -2 186 -17 17 -20 17 -35 2z"/>
<path d="M2045 1990 c-286 -230 -523 -419 -526 -419 -4 -1 -10 18 -14 42 l-7
42 -44 -90 c-23 -49 -42 -91 -40 -92 4 -4 177 34 183 41 3 2 -12 12 -33 21
-21 9 -34 19 -28 24 5 4 236 189 514 411 546 435 552 440 530 439 -8 0 -249
-189 -535 -419z"/>
<path d="M2245 1790 c-286 -230 -523 -419 -526 -419 -4 -1 -10 18 -14 42 l-7
42 -44 -90 c-23 -49 -42 -91 -40 -92 4 -4 177 34 183 41 3 2 -12 12 -33 21
-21 9 -34 19 -28 24 5 4 236 189 514 411 546 435 552 440 530 439 -8 0 -249
-189 -535 -419z"/>
<path d="M2445 1590 c-286 -230 -523 -419 -526 -419 -4 -1 -10 18 -14 42 l-7
42 -44 -90 c-23 -49 -42 -91 -40 -92 4 -4 177 34 183 41 3 2 -12 12 -33 21
-21 9 -34 19 -28 24 5 4 236 189 514 411 546 435 552 440 530 439 -8 0 -249
-189 -535 -419z"/>
<path d="M805 1600 c4 -6 11 -8 16 -5 14 9 11 15 -7 15 -8 0 -12 -5 -9 -10z"/>
<path d="M860 1552 c0 -14 39 -46 47 -39 3 4 -2 16 -12 27 -19 21 -35 26 -35
12z"/>
<path d="M960 1445 c12 -13 27 -22 32 -19 12 8 -21 44 -40 44 -12 0 -10 -6 8
-25z"/>
<path d="M1030 1382 c0 -14 39 -46 47 -39 3 4 -2 16 -12 27 -19 21 -35 26 -35
12z"/>
<path d="M1130 1275 c12 -13 27 -22 32 -19 12 8 -21 44 -40 44 -12 0 -10 -6 8
-25z"/>
<path d="M1200 1212 c0 -14 39 -46 47 -39 3 4 -2 16 -12 27 -19 21 -35 26 -35
12z"/>
<path d="M1300 1105 c12 -13 27 -22 32 -19 12 8 -21 44 -40 44 -12 0 -10 -6 8
-25z"/>
<path d="M531 999 c-17 -44 -31 -85 -31 -90 0 -19 21 -8 30 16 8 20 16 25 45
25 29 0 36 -4 41 -25 3 -14 13 -25 21 -25 8 0 13 6 11 13 -49 135 -63 167 -73
167 -7 0 -27 -36 -44 -81z m58 -11 c1 -12 -6 -18 -19 -18 -24 0 -23 -2 -8 40
10 30 12 32 19 14 4 -10 8 -27 8 -36z"/>
<path d="M940 990 c0 -53 4 -90 10 -90 6 0 10 37 10 90 0 53 -4 90 -10 90 -6
0 -10 -37 -10 -90z"/>
<path d="M1370 1042 c0 -14 39 -46 47 -39 3 4 -2 16 -12 27 -19 21 -35 26 -35
12z"/>
<path d="M670 964 c0 -36 4 -64 10 -64 6 0 10 20 10 44 0 46 19 72 45 62 11
-4 15 -20 15 -56 0 -28 5 -50 10 -50 7 0 10 24 8 63 l-3 62 -47 1 -48 2 0 -64z"/>
<path d="M809 1014 c-17 -21 -17 -78 1 -99 9 -11 24 -15 42 -13 19 3 28 0 28
-9 0 -20 -30 -28 -52 -14 -25 15 -35 7 -18 -14 16 -19 64 -19 80 0 7 9 15 49
18 89 l4 73 -45 1 c-30 1 -50 -4 -58 -14z m66 -49 c0 -36 -3 -40 -25 -40 -27
0 -36 20 -26 61 5 19 12 25 29 22 18 -3 22 -9 22 -43z"/>
<path d="M996 1008 c-34 -48 -8 -108 46 -108 14 0 31 7 38 15 17 21 7 29 -18
14 -23 -14 -52 -6 -52 16 0 11 11 15 45 15 49 0 56 10 29 48 -10 14 -26 22
-44 22 -18 0 -34 -8 -44 -22z m72 -15 c2 -9 -7 -13 -27 -13 -30 0 -39 9 -24
24 11 10 46 3 51 -11z"/>
<path d="M1411 966 c-130 -67 -221 -234 -208 -384 6 -69 32 -152 48 -152 12 0
11 5 -7 48 -52 126 -13 304 91 407 38 39 136 101 121 77 -3 -5 5 -19 18 -31
34 -32 39 -12 7 25 l-28 31 -42 -21z"/>
<path d="M1540 872 c0 -14 39 -46 47 -39 3 4 -2 16 -12 27 -19 21 -35 26 -35
12z"/>
<path d="M1626 792 c-3 -5 5 -19 18 -31 13 -13 26 -18 30 -13 3 5 -5 19 -18
31 -13 13 -26 18 -30 13z"/>
<path d="M323 760 c-74 -33 -83 -59 -83 -246 0 -151 1 -163 23 -195 14 -21 41
-41 70 -53 47 -20 47 -20 94 0 29 12 56 32 70 53 22 32 23 44 23 195 0 144 -2
165 -20 194 -19 32 -86 72 -120 72 -8 0 -34 -9 -57 -20z m119 -59 l33 -29 0
-157 0 -157 -33 -29 c-20 -18 -43 -29 -62 -29 -19 0 -42 11 -62 29 l-33 29 0
157 0 157 33 29 c20 18 43 29 62 29 19 0 42 -11 62 -29z"/>
<path d="M2723 760 c-74 -33 -83 -59 -83 -246 0 -151 1 -163 23 -195 14 -21
41 -41 70 -53 47 -20 47 -20 94 0 29 12 56 32 70 53 22 32 23 44 23 195 0 144
-2 165 -20 194 -19 32 -86 72 -120 72 -8 0 -34 -9 -57 -20z m119 -59 l33 -29
0 -157 0 -157 -33 -29 c-42 -38 -82 -38 -124 0 l-33 29 0 157 0 157 33 29 c20
18 43 29 62 29 19 0 42 -11 62 -29z"/>
<path d="M1710 702 c0 -14 39 -46 47 -39 3 4 -2 16 -12 27 -19 21 -35 26 -35
12z"/>
<path d="M1796 622 c-3 -5 5 -19 18 -31 13 -13 26 -18 30 -13 3 5 -5 19 -18
31 -13 13 -26 18 -30 13z"/>
<path d="M1880 532 c0 -14 39 -46 47 -39 3 4 -2 16 -12 27 -19 21 -35 26 -35
12z"/>
<path d="M863 457 c-46 -23 -83 -44 -83 -47 0 -3 38 -25 85 -48 47 -23 85 -39
85 -34 -1 4 -7 18 -15 32 -8 14 -14 28 -15 33 0 4 122 7 270 7 149 0 270 -3
270 -7 -1 -5 -7 -19 -15 -33 -8 -14 -14 -28 -15 -32 0 -5 38 11 85 34 47 23
85 45 85 48 0 3 -38 25 -85 48 -47 23 -85 39 -85 34 1 -4 7 -18 15 -32 8 -14
14 -28 15 -32 0 -5 -121 -8 -270 -8 -148 0 -270 2 -270 5 0 4 7 20 16 36 8 17
14 32 12 34 -2 1 -40 -16 -85 -38z"/>
<path d="M1966 452 c-7 -11 31 -48 41 -38 4 3 -2 16 -14 27 -11 12 -23 17 -27
11z"/>
<path d="M145 410 c-10 -16 3 -77 25 -120 27 -52 89 -104 142 -119 47 -13 47
-14 50 -60 2 -33 7 -46 18 -46 11 0 16 13 18 46 3 46 3 47 50 60 86 24 161
117 165 202 2 36 -1 42 -18 42 -15 0 -21 -9 -27 -43 -16 -97 -92 -162 -187
-162 -98 0 -172 63 -189 161 -7 43 -32 64 -47 39z"/>
<path d="M2545 410 c-10 -16 3 -77 25 -120 27 -52 89 -104 142 -119 47 -13 47
-14 50 -60 2 -33 7 -46 18 -46 11 0 16 13 18 46 3 46 3 47 50 60 86 24 161
117 165 202 2 36 -1 42 -18 42 -15 0 -21 -9 -27 -43 -16 -97 -92 -162 -187
-162 -98 0 -172 63 -189 161 -7 43 -32 64 -47 39z"/>
<path d="M710 210 l0 -90 50 0 c67 0 90 22 90 89 0 63 -30 91 -96 91 l-44 0 0
-90z m110 41 c26 -50 -4 -111 -55 -111 -24 0 -25 2 -25 65 l0 65 35 0 c24 0
37 -6 45 -19z"/>
<path d="M886 291 c-4 -7 -5 -15 -2 -18 9 -9 19 4 14 18 -4 11 -6 11 -12 0z"/>
<path d="M1060 266 c0 -8 -6 -17 -12 -20 -10 -5 -10 -7 0 -12 7 -3 12 -25 12
-55 0 -36 4 -51 15 -56 9 -3 19 -2 23 2 4 4 1 10 -5 12 -8 3 -13 22 -13 48 0
25 5 46 13 49 10 5 10 7 0 12 -7 3 -13 12 -13 20 0 8 -4 14 -10 14 -5 0 -10
-6 -10 -14z"/>
<path d="M880 185 c0 -37 4 -65 10 -65 6 0 10 28 10 65 0 37 -4 65 -10 65 -6
0 -10 -28 -10 -65z"/>
<path d="M939 234 c-18 -21 -1 -46 40 -58 17 -5 31 -13 31 -18 0 -15 -32 -22
-51 -10 -24 16 -29 15 -29 -3 0 -18 41 -29 76 -21 20 5 25 12 22 34 -2 21 -11
30 -38 38 -19 7 -34 16 -33 20 3 15 33 17 49 3 19 -16 30 -4 14 16 -16 20 -64
19 -81 -1z"/>
<path d="M1132 238 c-16 -16 -15 -28 3 -28 8 0 15 5 15 10 0 6 11 10 25 10 16
0 25 -6 25 -15 0 -9 -9 -15 -23 -15 -35 0 -59 -22 -55 -51 3 -22 8 -24 61 -25
31 -1 57 2 57 7 0 5 -4 9 -9 9 -6 0 -11 24 -13 53 -3 52 -3 52 -38 55 -19 2
-41 -3 -48 -10z m66 -75 c-4 -21 -36 -29 -51 -14 -9 9 -8 14 3 21 25 16 52 12
48 -7z"/>
<path d="M1260 183 c0 -76 18 -85 22 -11 2 42 7 54 22 56 25 5 36 -14 36 -65
0 -24 5 -43 10 -43 12 0 13 99 2 118 -5 7 -26 11 -50 10 l-42 -1 0 -64z"/>
<path d="M1396 234 c-9 -8 -16 -31 -16 -49 0 -39 22 -65 55 -65 24 0 55 23 55
41 0 15 -27 10 -34 -6 -8 -22 -33 -18 -47 6 -15 29 3 69 31 69 11 0 20 -4 20
-10 0 -5 7 -10 15 -10 13 0 14 4 5 20 -13 24 -62 27 -84 4z"/>
<path d="M1516 228 c-34 -48 -8 -108 46 -108 14 0 31 7 38 15 17 21 7 29 -18
14 -23 -14 -52 -6 -52 16 0 11 11 15 45 15 49 0 56 10 29 48 -10 14 -26 22
-44 22 -18 0 -34 -8 -44 -22z m72 -15 c2 -9 -7 -13 -27 -13 -30 0 -39 9 -24
24 11 10 46 3 51 -11z"/>
</g>
</svg>
