<?xml version="1.0" standalone="no"?>
<!DOCTYPE svg PUBLIC "-//W3C//DTD SVG 20010904//EN"
 "http://www.w3.org/TR/2001/REC-SVG-20010904/DTD/svg10.dtd">
<svg version="1.0" xmlns="http://www.w3.org/2000/svg"
 width="870.000000pt" height="705.000000pt" viewBox="0 0 870.000000 705.000000"
 preserveAspectRatio="xMidYMid meet">

<g transform="translate(0.000000,705.000000) scale(0.100000,-0.100000)"
fill="#000000" stroke="none">
<path d="M7347 6478 c-52 -57 -133 -146 -181 -198 l-87 -95 -87 -5 -87 -5 0
-200 0 -200 87 -5 87 -5 181 -197 181 -198 65 0 64 0 0 605 0 605 -64 0 -64 0
-95 -102z m91 -704 l-3 -207 -155 171 c-154 172 -154 172 -197 172 l-43 0 0
65 0 65 43 0 c42 0 45 2 147 117 58 64 128 141 155 171 l50 55 3 -201 c1 -110
1 -294 0 -408z"/>
<path d="M7932 6397 l-41 -42 34 -44 c91 -114 134 -270 114 -409 -13 -90 -53
-184 -109 -258 l-39 -51 43 -42 c23 -22 46 -41 52 -41 21 0 89 97 130 185 84
183 84 376 -1 562 -34 75 -112 183 -130 183 -6 0 -30 -19 -53 -43z"/>
<path d="M7747 6212 c-20 -21 -37 -43 -37 -49 0 -7 11 -28 24 -48 57 -84 55
-198 -5 -287 l-28 -43 41 -42 c23 -24 47 -43 53 -43 17 0 76 95 96 156 37 112
17 242 -52 345 -19 27 -39 49 -44 49 -6 0 -28 -17 -48 -38z"/>
<path d="M5115 4981 c-764 -612 -1323 -1053 -1326 -1047 -4 6 -15 53 -25 104
-10 50 -21 92 -24 92 -8 0 -211 -442 -206 -448 5 -4 436 85 470 98 14 5 -5 17
-78 50 -53 25 -96 48 -96 52 0 3 596 483 1324 1065 1235 987 1323 1059 1309
1076 -9 9 -19 17 -22 16 -3 0 -600 -476 -1326 -1058z"/>
<path d="M5615 4481 c-764 -612 -1323 -1053 -1326 -1047 -4 6 -15 53 -25 104
-10 50 -21 92 -24 92 -8 0 -211 -442 -206 -448 5 -4 436 85 470 98 14 5 -5 17
-78 50 -53 25 -96 48 -96 52 0 3 596 483 1324 1065 1235 987 1323 1059 1309
1076 -9 9 -19 17 -22 16 -3 0 -600 -476 -1326 -1058z"/>
<path d="M6115 3981 c-764 -612 -1323 -1053 -1326 -1047 -4 6 -15 53 -25 104
-10 50 -21 92 -24 92 -8 0 -211 -442 -206 -448 5 -4 436 85 470 98 14 5 -5 17
-78 50 -53 25 -96 48 -96 52 0 3 596 483 1324 1065 1235 987 1323 1059 1309
1076 -9 9 -19 17 -22 16 -3 0 -600 -476 -1326 -1058z"/>
<path d="M2026 4021 c-14 -15 -14 -20 -3 -30 11 -8 18 -7 31 8 14 15 14 20 3
30 -11 8 -18 7 -31 -8z"/>
<path d="M2159 3884 c-11 -13 -5 -22 37 -65 46 -46 51 -48 69 -35 19 14 18 17
-30 65 -27 28 -52 51 -56 51 -4 0 -12 -7 -20 -16z"/>
<path d="M2375 3676 c-19 -14 -18 -17 32 -68 50 -50 54 -52 70 -35 17 16 15
20 -33 67 -46 47 -51 49 -69 36z"/>
<path d="M2592 3468 c-20 -20 -14 -31 36 -81 37 -37 50 -45 60 -35 20 20 14
31 -36 81 -37 37 -50 45 -60 35z"/>
<path d="M2793 3244 c-9 -23 86 -117 104 -102 21 17 16 29 -29 75 -45 46 -65
53 -75 27z"/>
<path d="M3006 3033 c-5 -12 8 -32 43 -67 48 -48 52 -50 68 -33 16 16 15 20
-32 67 -52 53 -69 60 -79 33z"/>
<path d="M3219 2824 c-11 -13 -5 -23 39 -67 49 -49 53 -51 69 -34 16 16 15 20
-32 67 -27 27 -52 50 -56 50 -4 0 -12 -7 -20 -16z"/>
<path d="M1395 2663 c-4 -10 -38 -99 -75 -198 -38 -99 -72 -188 -76 -198 -6
-16 -2 -18 26 -15 30 3 35 8 55 63 l23 60 85 3 85 3 22 -66 c21 -63 23 -65 55
-65 l34 0 -25 68 c-14 37 -48 132 -77 212 l-52 145 -36 3 c-28 2 -38 -1 -44
-15z m70 -136 c36 -96 36 -97 -35 -97 -33 0 -60 2 -60 3 0 5 35 104 49 141 6
16 14 27 16 24 2 -2 16 -34 30 -71z"/>
<path d="M2340 2465 l0 -215 25 0 25 0 0 215 0 215 -25 0 -25 0 0 -215z"/>
<path d="M3432 2607 c-16 -19 77 -111 101 -101 26 10 21 24 -25 71 -45 46 -59
51 -76 30z"/>
<path d="M1670 2410 l0 -160 24 0 c23 0 24 2 28 111 4 102 6 112 31 136 17 17
37 26 58 26 51 0 59 -21 59 -155 l0 -118 30 0 30 0 0 119 c0 172 -15 201 -104
201 -39 0 -61 -6 -80 -21 l-26 -20 0 20 c0 16 -6 21 -25 21 l-25 0 0 -160z"/>
<path d="M2036 2540 c-54 -48 -71 -164 -35 -232 27 -50 131 -76 175 -43 29 22
37 18 30 -17 -9 -48 -31 -75 -66 -82 -32 -6 -90 16 -90 34 0 6 -13 10 -29 10
-29 0 -30 -1 -19 -31 14 -41 65 -63 135 -57 105 9 123 49 123 273 l0 165 -24
0 c-13 0 -26 -5 -28 -12 -3 -8 -11 -7 -28 5 -40 28 -103 22 -144 -13z m126
-29 c60 -30 65 -143 9 -193 -40 -36 -65 -35 -102 1 -24 25 -29 38 -29 80 0 64
17 101 55 117 16 7 32 11 35 10 3 -1 17 -8 32 -15z"/>
<path d="M2534 2560 c-73 -29 -104 -162 -59 -250 47 -92 197 -91 247 1 l18 34
-24 3 c-15 2 -34 -7 -54 -27 -54 -55 -129 -34 -147 42 l-7 27 116 0 116 0 0
35 c0 48 -22 97 -55 123 -29 23 -108 30 -151 12z m105 -45 c28 -14 41 -33 41
-61 0 -11 -18 -14 -84 -14 -79 0 -84 1 -79 20 6 24 58 70 79 70 8 0 28 -7 43
-15z"/>
<path d="M3558 2436 c-99 -50 -184 -114 -268 -202 -140 -147 -220 -299 -271
-514 -8 -33 -13 -113 -13 -200 0 -118 5 -162 23 -235 23 -88 71 -215 82 -215
3 0 13 6 23 13 18 13 17 15 -3 55 -11 22 -33 85 -47 139 -24 86 -27 117 -27
248 0 131 3 162 27 248 72 267 245 482 492 614 61 32 84 49 80 60 -3 8 -6 17
-6 19 0 11 -31 1 -92 -30z"/>
<path d="M3642 2398 c-10 -10 -2 -23 35 -60 50 -50 70 -58 80 -32 4 10 -9 31
-38 60 -46 46 -58 51 -77 32z"/>
<path d="M3862 2198 c-19 -19 -15 -31 31 -76 46 -45 58 -50 75 -29 16 19 -88
123 -106 105z"/>
<path d="M4063 1974 c-4 -11 11 -32 44 -66 47 -47 51 -49 67 -32 17 16 15 19
-30 65 -51 51 -71 60 -81 33z"/>
<path d="M842 1921 c-129 -48 -206 -134 -237 -263 -18 -79 -21 -647 -4 -730
17 -78 50 -137 111 -194 200 -190 528 -81 587 194 18 84 14 651 -4 730 -17 71
-66 154 -116 196 -90 76 -234 105 -337 67z m203 -120 c57 -26 112 -86 130
-141 13 -40 15 -100 13 -392 l-3 -345 -30 -48 c-57 -92 -162 -140 -252 -117
-66 17 -122 59 -158 117 l-30 48 -3 345 c-3 389 0 410 66 477 50 51 105 75
172 75 32 0 71 -8 95 -19z"/>
<path d="M6842 1921 c-129 -48 -206 -134 -237 -263 -18 -79 -21 -647 -4 -730
17 -78 50 -137 111 -194 200 -190 528 -81 587 194 18 84 14 651 -4 730 -17 71
-66 154 -116 196 -90 76 -234 105 -337 67z m203 -120 c57 -26 112 -86 130
-141 13 -40 15 -100 13 -392 l-3 -345 -30 -48 c-36 -58 -92 -100 -157 -117
-91 -23 -196 25 -253 117 l-30 48 -3 345 c-3 389 0 410 66 477 50 51 105 75
172 75 32 0 71 -8 95 -19z"/>
<path d="M4285 1766 c-19 -14 -18 -17 32 -68 50 -50 54 -52 70 -35 17 16 15
20 -33 67 -46 47 -51 49 -69 36z"/>
<path d="M4490 1555 c-11 -14 -6 -23 35 -65 51 -52 72 -61 82 -34 4 10 -11 32
-43 65 -26 27 -51 49 -55 49 -4 0 -12 -7 -19 -15z"/>
<path d="M4703 1334 c-9 -23 86 -117 104 -102 21 17 16 29 -29 75 -45 46 -65
53 -75 27z"/>
<path d="M2150 1135 l-225 -112 224 -112 c123 -62 225 -110 228 -108 2 3 -16
46 -41 96 -25 50 -46 93 -46 96 0 3 308 5 685 5 377 0 685 -2 685 -5 0 -3 -21
-46 -46 -96 -25 -50 -43 -93 -41 -96 3 -2 105 46 228 108 l224 112 -225 112
c-124 62 -226 112 -228 110 -2 -2 17 -44 42 -94 25 -50 46 -93 46 -96 0 -3
-308 -5 -685 -5 -377 0 -685 2 -685 5 0 3 21 46 46 96 25 50 44 92 42 94 -2 2
-104 -48 -228 -110z"/>
<path d="M4920 1125 c-11 -14 -6 -23 35 -65 46 -47 50 -49 67 -33 18 16 17 19
-29 65 -26 26 -50 48 -54 48 -4 0 -12 -7 -19 -15z"/>
<path d="M375 1030 c-15 -17 -17 -31 -12 -97 20 -247 206 -458 460 -519 l67
-17 0 -98 c0 -86 3 -102 20 -119 25 -25 55 -25 80 0 17 17 20 33 20 119 l0 98
68 17 c178 43 324 158 400 316 82 169 84 320 5 320 -33 0 -49 -30 -62 -115
-40 -271 -270 -448 -538 -413 -209 27 -372 193 -404 413 -7 44 -19 88 -27 98
-20 23 -55 22 -77 -3z"/>
<path d="M6375 1030 c-15 -17 -17 -31 -12 -97 20 -247 206 -458 460 -519 l67
-17 0 -98 c0 -86 3 -102 20 -119 25 -25 55 -25 80 0 17 17 20 33 20 119 l0 98
68 17 c178 43 324 158 400 316 82 169 84 320 5 320 -33 0 -49 -30 -62 -115
-40 -271 -270 -448 -538 -413 -209 27 -372 193 -404 413 -7 44 -19 88 -27 98
-20 23 -55 22 -77 -3z"/>
<path d="M1780 514 l0 -216 118 4 c68 3 128 10 144 18 96 47 127 260 51 350
-43 52 -70 60 -198 60 l-115 0 0 -216z m230 151 c43 -22 64 -69 64 -146 0
-117 -52 -169 -171 -169 l-63 0 0 165 0 165 70 0 c44 0 82 -6 100 -15z"/>
<path d="M2200 700 c0 -27 3 -30 30 -30 27 0 30 3 30 30 0 27 -3 30 -30 30
-27 0 -30 -3 -30 -30z"/>
<path d="M2650 663 c0 -36 -3 -43 -20 -43 -15 0 -20 -7 -20 -25 0 -18 5 -25
20 -25 19 0 20 -7 20 -116 0 -138 6 -154 60 -154 32 0 40 4 40 18 0 11 -11 24
-25 30 -24 11 -25 14 -25 117 l0 105 25 0 c20 0 25 5 25 25 0 20 -5 25 -25 25
-23 0 -25 4 -25 43 0 38 -2 42 -25 42 -23 0 -25 -4 -25 -42z"/>
<path d="M2391 614 c-45 -19 -60 -41 -61 -85 0 -53 23 -70 137 -99 24 -6 47
-19 53 -30 27 -50 -86 -84 -130 -40 -11 11 -20 25 -20 30 0 6 -11 10 -25 10
-35 0 -33 -31 4 -72 28 -31 33 -33 101 -33 68 0 73 2 101 33 57 63 32 129 -58
151 -106 26 -133 51 -91 84 29 24 87 17 107 -13 15 -23 61 -28 61 -6 0 25 -41
65 -78 76 -48 13 -60 12 -101 -6z"/>
<path d="M2915 623 c-52 -9 -67 -15 -85 -33 -11 -11 -20 -31 -20 -45 0 -20 5
-25 25 -25 15 0 25 6 25 14 0 20 39 46 70 46 36 0 72 -28 68 -52 -4 -28 -21
-36 -91 -43 -77 -9 -117 -41 -117 -95 0 -82 76 -120 163 -82 39 17 48 18 58 6
6 -8 27 -14 45 -14 27 0 34 4 34 19 0 10 -9 21 -20 24 -19 5 -20 14 -20 120 0
96 -3 116 -18 130 -19 18 -87 35 -117 30z m85 -194 c0 -43 -47 -89 -92 -89
-41 0 -58 15 -58 51 0 34 8 39 84 55 34 6 62 12 64 13 1 0 2 -13 2 -30z"/>
<path d="M3555 623 c-115 -31 -144 -232 -45 -305 75 -55 178 -20 205 70 6 19
3 22 -24 22 -19 0 -31 -5 -31 -13 0 -20 -44 -57 -67 -57 -55 0 -83 40 -83 117
0 111 101 168 145 82 11 -20 23 -29 40 -29 14 0 25 4 25 9 0 25 -25 72 -45 85
-26 17 -90 27 -120 19z"/>
<path d="M2207 613 c-4 -3 -7 -75 -7 -160 l0 -153 30 0 30 0 0 160 0 160 -23
0 c-13 0 -27 -3 -30 -7z"/>
<path d="M3140 460 l0 -160 25 0 25 0 0 100 c0 116 13 152 60 169 36 12 74 1
84 -24 3 -9 6 -68 6 -131 l0 -114 25 0 25 0 0 138 c0 132 -1 140 -23 160 -32
30 -113 31 -151 1 l-26 -20 0 20 c0 16 -6 21 -25 21 l-25 0 0 -160z"/>
<path d="M3834 610 c-73 -29 -104 -162 -59 -250 47 -92 197 -91 247 1 l18 34
-24 3 c-15 2 -34 -7 -54 -27 -54 -55 -129 -34 -147 42 l-7 27 116 0 116 0 0
35 c0 48 -22 97 -55 123 -29 23 -108 30 -151 12z m105 -45 c28 -14 41 -33 41
-61 0 -11 -18 -14 -84 -14 -79 0 -84 1 -79 20 6 24 58 70 79 70 8 0 28 -7 43
-15z"/>
</g>
</svg>
